<svg width="29" height="29" viewBox="0 0 29 29" fill="none" xmlns="http://www.w3.org/2000/svg">
<path d="M7.07625 14.1667C7.07625 18.0781 10.2581 21.2599 14.1695 21.2599C18.0809 21.2599 21.2628 18.0781 21.2628 14.1667C21.2628 10.2553 18.0809 7.07342 14.1695 7.07342C10.2581 7.07342 7.07625 10.2553 7.07625 14.1667ZM14.1695 9.90675C16.5183 9.90675 18.4294 11.8178 18.4294 14.1667C18.4294 16.5155 16.5183 18.4266 14.1695 18.4266C11.8207 18.4266 9.90958 16.5155 9.90958 14.1667C9.90958 11.8178 11.8207 9.90675 14.1695 9.90675ZM12.75 24.0833H15.5833V28.3333H12.75V24.0833ZM12.75 0H15.5833V4.25H12.75V0ZM0 12.75H4.25V15.5833H0V12.75ZM24.0833 12.75H28.3333V15.5833H24.0833V12.75ZM3.14642 23.1809L6.14975 20.1748L8.15433 22.1779L5.151 25.1841L3.14642 23.1809ZM20.1762 6.154L23.1823 3.14783L25.1855 5.151L22.1793 8.15717L20.1762 6.154ZM6.154 8.15858L3.14783 5.15242L5.15242 3.14925L8.15575 6.15542L6.154 8.15858ZM25.1855 23.1823L23.1823 25.1855L20.1762 22.1793L22.1793 20.1762L25.1855 23.1823Z" fill="#2A8BF2"/>
</svg>
