<svg width="172" height="172" viewBox="0 0 172 172" fill="none" xmlns="http://www.w3.org/2000/svg">
<path d="M24.5714 0C18.0547 0 11.8048 2.58877 7.1968 7.1968C2.58877 11.8048 0 18.0547 0 24.5714V147.429C0 153.945 2.58877 160.195 7.1968 164.803C11.8048 169.411 18.0547 172 24.5714 172H147.429C153.945 172 160.195 169.411 164.803 164.803C169.411 160.195 172 153.945 172 147.429V24.5714C172 18.0547 169.411 11.8048 164.803 7.1968C160.195 2.58877 153.945 0 147.429 0H24.5714ZM73.7143 127.943L40.4569 94.686L57.8289 77.314L73.7143 93.1994L120.314 46.5997L137.686 63.9717L73.7143 127.943Z" fill="#4CE364"/>
</svg>
