<svg width="154" height="36" viewBox="0 0 154 36" fill="none" xmlns="http://www.w3.org/2000/svg">
<rect width="1.33333" height="9.77778" rx="0.666667" transform="matrix(1 0 0 -1 54 22.6667)" fill="#F4F4F4"/>
<rect width="1.33333" height="20" rx="0.666667" transform="matrix(1 0 0 -1 56.6666 28)" fill="#F4F4F4"/>
<rect width="1.33333" height="8" rx="0.666667" transform="matrix(1 0 0 -1 59.3333 21.7778)" fill="#F4F4F4"/>
<rect width="1.33333" height="16" rx="0.666667" transform="matrix(1 0 0 -1 62 25.7778)" fill="#F4F4F4"/>
<rect width="1.33333" height="14.2222" rx="0.666667" transform="matrix(1 0 0 -1 64.6666 25.3333)" fill="#F4F4F4"/>
<rect width="1.33333" height="9.33333" rx="0.666667" transform="matrix(1 0 0 -1 67.3333 22.2222)" fill="#F4F4F4"/>
<rect width="1.33333" height="9.33333" rx="0.666667" transform="matrix(1 0 0 -1 70 22.2222)" fill="#F4F4F4"/>
<rect width="1.33333" height="15.5556" rx="0.666667" transform="matrix(1 0 0 -1 72.6666 25.7778)" fill="#F4F4F4"/>
<rect width="1.33333" height="6.66667" rx="0.666667" transform="matrix(1 0 0 -1 75.3333 21.3333)" fill="#F4F4F4"/>
<rect width="1.33333" height="14.6667" rx="0.666667" transform="matrix(1 0 0 -1 78 25.3333)" fill="#F4F4F4"/>
<rect width="1.33333" height="9.33333" rx="0.666667" transform="matrix(1 0 0 -1 80.6666 22.2222)" fill="#F4F4F4"/>
<rect width="1.33333" height="20" rx="0.666667" transform="matrix(1 0 0 -1 83.3333 28)" fill="#F4F4F4"/>
<rect width="1.33333" height="9.33333" rx="0.666667" transform="matrix(1 0 0 -1 86 22.2222)" fill="#F4F4F4"/>
<rect width="1.33333" height="9.33333" rx="0.666667" transform="matrix(1 0 0 -1 88.6666 22.2222)" fill="#F4F4F4"/>
<rect width="1.33333" height="6.66667" rx="0.666667" transform="matrix(1 0 0 -1 91.3333 21.3333)" fill="#F4F4F4"/>
<rect width="1.33333" height="15.5556" rx="0.666667" transform="matrix(1 0 0 -1 94 25.7778)" fill="#F4F4F4"/>
<rect width="1.33333" height="12" rx="0.666667" transform="matrix(1 0 0 -1 96.6666 24)" fill="#F4F4F4"/>
<rect width="1.33333" height="17.3333" rx="0.666667" transform="matrix(1 0 0 -1 99.3333 26.2222)" fill="#F4F4F4"/>
<rect width="1.33333" height="9.77778" rx="0.666667" transform="matrix(1 0 0 -1 102 22.6667)" fill="#F4F4F4"/>
<rect width="1.33333" height="14.6667" rx="0.666667" transform="matrix(1 0 0 -1 104.667 25.3333)" fill="#F4F4F4"/>
<rect width="1.33333" height="12" rx="0.666667" transform="matrix(1 0 0 -1 107.333 24)" fill="#F4F4F4"/>
<rect width="1.33333" height="13.3333" rx="0.666667" transform="matrix(1 0 0 -1 110 24.4443)" fill="#F4F4F4"/>
<rect width="1.33333" height="9.77778" rx="0.666667" transform="matrix(1 0 0 -1 112.667 22.6667)" fill="#F4F4F4"/>
<rect width="1.33333" height="13.7778" rx="0.666667" transform="matrix(1 0 0 -1 115.333 24.4443)" fill="#F4F4F4"/>
<rect width="1.33333" height="6.66667" rx="0.666667" transform="matrix(1 0 0 -1 118 21.3333)" fill="#F4F4F4"/>
<rect width="1.33333" height="9.77778" rx="0.666667" transform="matrix(1 0 0 -1 120.667 22.6667)" fill="#F4F4F4"/>
<rect width="1.33333" height="9.33333" rx="0.666667" transform="matrix(1 0 0 -1 123.333 22.2222)" fill="#F4F4F4"/>
<rect width="1.33333" height="9.77778" rx="0.666667" transform="matrix(1 0 0 -1 126 22.6667)" fill="#F4F4F4"/>
<rect width="1.33333" height="16" rx="0.666667" transform="matrix(1 0 0 -1 128.667 25.7778)" fill="#F4F4F4"/>
<rect width="1.33333" height="9.33333" rx="0.666667" transform="matrix(1 0 0 -1 131.333 22.2222)" fill="#F4F4F4"/>
<rect width="1.33333" height="6.66667" rx="0.666667" transform="matrix(1 0 0 -1 134 21.3333)" fill="#F4F4F4"/>
<rect width="1.33333" height="13.3333" rx="0.666667" transform="matrix(1 0 0 -1 136.667 24.4443)" fill="#F4F4F4"/>
<rect width="1.33333" height="9.33333" rx="0.666667" transform="matrix(1 0 0 -1 139.333 22.2222)" fill="#F4F4F4"/>
<rect width="1.33333" height="9.77778" rx="0.666667" transform="matrix(1 0 0 -1 142 22.6667)" fill="#F4F4F4"/>
<rect width="1.33333" height="6.66667" rx="0.666667" transform="matrix(1 0 0 -1 144.667 21.3333)" fill="#F4F4F4"/>
<rect width="1.33333" height="9.77778" rx="0.666667" transform="matrix(1 0 0 -1 147.333 22.6667)" fill="#F4F4F4"/>
<rect width="1.33333" height="13.7778" rx="0.666667" transform="matrix(1 0 0 -1 150 24.4443)" fill="#F4F4F4"/>
<rect width="1.33333" height="9.33333" rx="0.666667" transform="matrix(1 0 0 -1 152.667 22.2222)" fill="#F4F4F4"/>
<circle cx="18" cy="18" r="18" fill="#F4F4F4"/>
<mask id="mask0_346_5233" style="mask-type:alpha" maskUnits="userSpaceOnUse" x="14" y="12" width="11" height="12">
<path d="M23.599 16.4994C24.7318 17.1791 24.7318 18.821 23.599 19.5007L16.7503 23.6098C15.5839 24.3097 14.1 23.4695 14.1 22.1092L14.1 13.8909C14.1 12.5306 15.5839 11.6904 16.7503 12.3903L23.599 16.4994Z" fill="white"/>
</mask>
<g mask="url(#mask0_346_5233)">
<rect x="11.7" y="10.8" width="14.4" height="14.4" fill="#2A8BF2"/>
</g>
</svg>
