<svg width="20" height="20" viewBox="0 0 20 20" fill="none" xmlns="http://www.w3.org/2000/svg">
<path d="M18 1.01148e-06H2C0.897 1.01148e-06 0 0.894001 0 1.992V14.009C0 15.106 0.897 16 2 16H5V20L11.351 16H18C19.103 16 20 15.106 20 14.008V1.992C19.9984 1.46279 19.7869 0.95583 19.412 0.582372C19.037 0.208914 18.5292 -0.000531115 18 1.01148e-06ZM9 8C9 8.39556 8.8827 8.78224 8.66294 9.11114C8.44318 9.44004 8.13082 9.69638 7.76537 9.84776C7.39991 9.99913 6.99778 10.0387 6.60982 9.96157C6.22186 9.8844 5.86549 9.69392 5.58579 9.41421C5.30608 9.13451 5.1156 8.77814 5.03843 8.39018C4.96126 8.00222 5.00087 7.60009 5.15224 7.23463C5.30362 6.86918 5.55996 6.55682 5.88886 6.33706C6.21776 6.1173 6.60444 6 7 6C7.086 6 7.167 6.015 7.25 6.025C7.332 6.011 7.414 6 7.5 6C7.89782 6 8.27936 6.15804 8.56066 6.43934C8.84196 6.72064 9 7.10218 9 7.5C9 7.586 8.988 7.668 8.975 7.75C8.985 7.833 9 7.915 9 8ZM13 10C12.4696 10 11.9609 9.78929 11.5858 9.41421C11.2107 9.03914 11 8.53043 11 8C11 7.914 11.015 7.833 11.025 7.75C11.0101 7.66746 11.0017 7.58386 11 7.5C11 7.10218 11.158 6.72064 11.4393 6.43934C11.7206 6.15804 12.1022 6 12.5 6C12.586 6 12.668 6.011 12.75 6.025C12.833 6.015 12.914 6 13 6C13.5304 6 14.0391 6.21071 14.4142 6.58579C14.7893 6.96086 15 7.46957 15 8C15 8.53043 14.7893 9.03914 14.4142 9.41421C14.0391 9.78929 13.5304 10 13 10Z" fill="#F4F4F4"/>
</svg>
