<svg width="37" height="37" viewBox="0 0 128 106" fill="none" xmlns="http://www.w3.org/2000/svg">
<path d="M21.332 35.333H106.665" stroke="white" stroke-width="4" stroke-linecap="round" stroke-linejoin="round"/>
<path d="M101.332 17.667H26.6654C23.7198 17.667 21.332 19.6444 21.332 22.0837V83.917C21.332 86.3563 23.7198 88.3337 26.6654 88.3337H101.332C104.278 88.3337 106.665 86.3563 106.665 83.917V22.0837C106.665 19.6444 104.278 17.667 101.332 17.667Z" stroke="white" stroke-width="4" stroke-linecap="round" stroke-linejoin="round"/>
<path d="M62.668 53H44.0013C43.2649 53 42.668 53.4944 42.668 54.1042V69.5625C42.668 70.1723 43.2649 70.6667 44.0013 70.6667H62.668C63.4043 70.6667 64.0013 70.1723 64.0013 69.5625V54.1042C64.0013 53.4944 63.4043 53 62.668 53Z" stroke="white" stroke-width="4" stroke-linecap="round" stroke-linejoin="round"/>
<path d="M85.332 8.83301V17.6663" stroke="white" stroke-width="4" stroke-linecap="round" stroke-linejoin="round"/>
<path d="M42.668 8.83301V17.6663" stroke="white" stroke-width="4" stroke-linecap="round" stroke-linejoin="round"/>
</svg>
