<svg width="37" height="37" viewBox="0 0 91 91" fill="none" xmlns="http://www.w3.org/2000/svg">
<path d="M81.9 2.00001L81.902 2C83.7802 1.99812 85.5824 2.74144 86.9131 4.06684C88.2433 5.39167 88.9937 7.18991 89 9.0672C89 9.068 89 9.0688 89 9.06961L89 63.7364C89 67.6206 85.8213 70.8 81.9 70.8H51.6471H51.0697L50.5812 71.1077L24.75 87.3767V72.8V70.8H22.75H9.1C5.17808 70.8 2 67.6199 2 63.741V9.0636C2 5.17944 5.17874 2 9.1 2L81.9 2.00001ZM48.05 34.125V34.1457L48.0504 34.1663C48.0582 34.5419 48.0888 34.9165 48.1422 35.2881C48.1028 35.5768 48.05 36.0032 48.05 36.4C48.05 39.3439 49.2195 42.1672 51.3011 44.2489C53.3828 46.3305 56.2061 47.5 59.15 47.5C62.0939 47.5 64.9172 46.3305 66.9989 44.2489C69.0805 42.1672 70.25 39.3439 70.25 36.4C70.25 33.4561 69.0805 30.6328 66.9989 28.5511C64.9172 26.4695 62.0939 25.3 59.15 25.3C58.7527 25.3 58.3257 25.353 58.0369 25.3923C57.6915 25.3414 57.2995 25.3 56.875 25.3C54.5345 25.3 52.2898 26.2298 50.6348 27.8848C48.9798 29.5398 48.05 31.7845 48.05 34.125ZM41.0793 42.5668C42.299 40.7414 42.95 38.5954 42.95 36.4C42.95 36.0025 42.8962 35.571 42.8567 35.2809C42.9045 34.9508 42.95 34.5531 42.95 34.125C42.95 31.7845 42.0202 29.5398 40.3652 27.8848C38.7102 26.2298 36.4655 25.3 34.125 25.3C33.7005 25.3 33.3085 25.3414 32.9631 25.3923C32.6743 25.353 32.2473 25.3 31.85 25.3C29.6546 25.3 27.5086 25.951 25.6832 27.1707C23.8578 28.3904 22.4351 30.124 21.5949 32.1522C20.7548 34.1805 20.535 36.4123 20.9633 38.5655C21.3916 40.7187 22.4488 42.6965 24.0011 44.2489C25.5535 45.8013 27.5313 46.8584 29.6845 47.2867C31.8377 47.715 34.0695 47.4952 36.0978 46.6551C38.126 45.8149 39.8596 44.3922 41.0793 42.5668Z" stroke="white" stroke-width="4"/>
</svg>
