<svg width="37" height="37" viewBox="0 0 121 118" fill="none" xmlns="http://www.w3.org/2000/svg">
<path d="M60.4987 78.6663C71.6364 78.6663 80.6654 69.8613 80.6654 58.9997C80.6654 48.1381 71.6364 39.333 60.4987 39.333C49.361 39.333 40.332 48.1381 40.332 58.9997C40.332 69.8613 49.361 78.6663 60.4987 78.6663Z" stroke="white" stroke-width="4" stroke-linecap="round" stroke-linejoin="round"/>
<path d="M96.6332 39.0383L96.3017 38.4785C95.3871 36.9346 94.9203 35.1773 94.9511 33.3945L95.1019 24.6486C95.1328 22.8613 94.1664 21.1985 92.5782 20.306L78.7809 12.5523C77.1967 11.6621 75.2423 11.678 73.6736 12.594L66.0149 17.0662C64.4496 17.9802 62.6593 18.4629 60.8349 18.4629H60.1709C58.3425 18.4629 56.5485 17.9781 54.9809 17.0603L47.287 12.5558C45.7127 11.6342 43.7492 11.62 42.1612 12.5188L28.4076 20.3033C26.8271 21.1979 25.8666 22.8565 25.8974 24.6384L26.0485 33.3945C26.0792 35.1773 25.6124 36.9346 24.6979 38.4785L24.3707 39.0308C23.4557 40.5756 22.127 41.8485 20.527 42.7132L12.6877 46.9497C11.081 47.8181 10.0857 49.4699 10.0899 51.2614L10.126 66.7578C10.1301 68.5384 11.1211 70.1776 12.7166 71.0432L20.5182 75.2757C22.1237 76.1467 23.4547 77.429 24.3674 78.9839L24.7179 79.5811C25.6195 81.1172 26.0793 82.8622 26.0487 84.632L25.8977 93.3499C25.8668 95.1373 26.8332 96.8003 28.4215 97.6929L42.2187 105.446C43.8029 106.337 45.7572 106.321 47.3259 105.405L54.9846 100.933C56.5499 100.019 58.3402 99.5358 60.1646 99.5358H60.8286C62.657 99.5358 64.451 100.021 66.0187 100.938L73.7126 105.443C75.2868 106.365 77.2503 106.379 78.8384 105.48L92.5919 97.6954C94.1725 96.8008 95.1329 95.1422 95.1021 93.3604L94.9511 84.6042C94.9203 82.8215 95.3871 81.0641 96.3017 79.5202L96.6288 78.9679C97.5438 77.4232 98.8725 76.1503 100.473 75.2856L108.312 71.049C109.919 70.1807 110.914 68.5288 110.91 66.7374L110.874 51.2409C110.869 49.4604 109.878 47.8211 108.283 46.9555L100.463 42.7129C98.8689 41.8483 97.5455 40.5783 96.6332 39.0383Z" stroke="white" stroke-width="4" stroke-linecap="round" stroke-linejoin="round"/>
</svg>
