<svg width="37" height="37" viewBox="0 0 37 37" fill="none" xmlns="http://www.w3.org/2000/svg">
<path d="M19.8708 19.9341C24.4378 19.9341 28.1401 19.3898 28.1401 18.7185C28.1401 18.0472 24.4378 17.5029 19.8708 17.5029C15.3038 17.5029 11.6016 18.0472 11.6016 18.7185C11.6016 19.3898 15.3038 19.9341 19.8708 19.9341Z" fill="#F4F4F4"/>
<path d="M10.6133 31.8624L10.683 31.8781L10.7093 31.8428L10.6133 31.8624Z" fill="#F4F4F4"/>
<path d="M8.90407 30.9534C8.76591 30.7711 8.64003 30.5792 8.52734 30.3789C8.62665 30.5877 8.75345 30.781 8.90407 30.9534Z" fill="#F4F4F4"/>
<path d="M10.71 31.8432L10.6836 31.8785C11.3636 31.853 11.8872 31.5197 12.3318 30.9707C11.8885 31.4258 11.323 31.73 10.71 31.8432Z" fill="#F4F4F4"/>
<path d="M11.9967 20.3125C11.8962 20.7587 11.7411 21.1896 11.5352 21.5947C12.2786 23.162 12.6513 24.8917 12.622 26.6393C13.1118 28.0431 13.2191 29.4057 12.72 30.4037C13.6618 28.8215 14.2778 26.2198 15.5455 23.8592C15.2018 23.3074 14.8189 22.7832 14.4002 22.2907C13.6943 21.5148 12.8848 20.8485 11.9967 20.3125Z" fill="#F4F4F4"/>
<path d="M8.90625 30.9531C9.34703 31.5041 9.8688 31.8452 10.5488 31.8746C10.539 31.8637 10.5302 31.8519 10.5224 31.8393C9.90968 31.7218 9.3459 31.4127 8.90625 30.9531Z" fill="#F4F4F4"/>
<path d="M10.542 31.8761L10.6117 31.8624L10.5156 31.8408C10.5234 31.8534 10.5322 31.8652 10.542 31.8761Z" fill="#F4F4F4"/>
<path d="M12.7219 30.4023C12.605 30.6012 12.4747 30.7912 12.332 30.9709C12.4865 30.8009 12.6177 30.6096 12.7219 30.4023Z" fill="#F4F4F4"/>
<path d="M0.428994 18.5089C0.428994 18.5736 0.428994 18.6383 0.428994 18.7049C0.428994 18.7324 0.428994 18.7598 0.428994 18.7873C0.429837 18.7925 0.429837 18.7978 0.428994 18.803C0.433261 18.8103 0.436437 18.8182 0.438413 18.8265V18.8559C0.445276 18.8868 0.45473 18.9169 0.466666 18.9461L0.489272 18.9833L0.508107 19.0128L0.519409 19.0265C6.19298 20.9871 6.7788 27.4315 8.50422 30.3803C8.01071 29.3784 8.12749 28.0178 8.62855 26.6199C8.6101 24.8731 8.99444 23.1472 9.74932 21.587C8.66622 20.7283 8.44018 19.7068 8.70201 18.9265C7.92094 18.7212 7.12541 18.5809 6.32295 18.5069L1.57614 18.4854H0.410156L0.428994 18.5089Z" fill="#F4F4F4"/>
<path d="M12.6232 26.6397C12.6542 24.8925 12.2835 23.1629 11.542 21.5951C11.7479 21.19 11.903 20.7591 12.0035 20.3129C10.9755 19.6933 9.86903 19.2267 8.71653 18.9268C8.4547 19.711 8.68074 20.7285 9.76384 21.5873C9.00896 23.1475 8.62462 24.8734 8.64307 26.6201C8.1439 28.018 8.02523 29.3787 8.51875 30.3806C8.63144 30.5809 8.75731 30.7728 8.89548 30.955C9.33513 31.4145 9.89891 31.7237 10.5117 31.8412C10.4921 31.8165 10.4745 31.7903 10.4589 31.7628C10.4745 31.7903 10.4921 31.8165 10.5117 31.8412L10.6077 31.8628L10.7038 31.8432C10.7226 31.8177 10.7396 31.7922 10.7565 31.7647C10.7396 31.7922 10.7226 31.8177 10.7038 31.8432C11.3168 31.73 11.8824 31.4257 12.3256 30.9707C12.4683 30.7909 12.5986 30.6009 12.7155 30.4021C13.2204 29.4042 13.113 28.0416 12.6232 26.6397Z" fill="#F4F4F4"/>
<path d="M12.7497 10.4372C12.7661 12.1818 12.3818 13.9053 11.6289 15.4641C11.8573 15.9047 12.0181 16.3796 12.1055 16.8719C12.2938 16.764 12.4634 16.6523 12.6348 16.5346C13.8369 15.6563 14.8648 14.5445 15.6618 13.2604C14.4054 10.8842 13.8008 8.26877 12.874 6.6748C13.3656 7.67667 13.2488 9.03928 12.7497 10.4372Z" fill="#F4F4F4"/>
<path d="M12.4844 6.10215C12.0455 5.54926 11.5237 5.21008 10.8438 5.17871L10.8701 5.214C11.4824 5.33257 12.0454 5.64236 12.4844 6.10215Z" fill="#F4F4F4"/>
<path d="M10.847 5.17871L10.7773 5.19243L10.8734 5.214L10.847 5.17871Z" fill="#F4F4F4"/>
<path d="M8.66797 6.65549C8.78384 6.45591 8.9142 6.26583 9.05789 6.08691C8.90248 6.25607 8.77117 6.44754 8.66797 6.65549Z" fill="#F4F4F4"/>
<path d="M10.7776 5.19243L10.7079 5.17871L10.6797 5.214L10.7776 5.19243Z" fill="#F4F4F4"/>
<path d="M10.6785 5.214L10.7068 5.17871C10.0268 5.20224 9.50125 5.5375 9.05859 6.08647C9.50035 5.63034 10.0656 5.32588 10.6785 5.214Z" fill="#F4F4F4"/>
<path d="M12.4844 6.10254C12.6274 6.28288 12.7572 6.47426 12.8724 6.67503C12.7699 6.46593 12.6393 6.27315 12.4844 6.10254Z" fill="#F4F4F4"/>
<path d="M0.563584 17.9581L0.518378 17.9836L0.486356 18.0326L0.463751 18.064L0.452449 18.0836L0.437379 18.1051C0.437379 18.1326 0.424195 18.16 0.420427 18.1875C0.411941 18.284 0.411941 18.3811 0.420427 18.4776H1.58641L6.3351 18.4992H6.45377C7.32267 18.4683 8.18676 18.3515 9.03438 18.1502L9.28114 18.0816C9.46064 17.9356 9.66521 17.8265 9.88391 17.7601C9.27926 17.5405 9.10408 17.0484 9.84435 15.4642C9.10119 13.8975 8.72854 12.1686 8.75748 10.4216C8.26773 9.01973 8.15848 7.65516 8.65954 6.65918C6.9115 9.60007 6.28236 16.0504 0.573003 17.9444C0.574887 17.9483 0.569235 17.9561 0.563584 17.9581Z" fill="#F4F4F4"/>
<path d="M9.99732 17.8029L9.89183 17.7656C9.67313 17.832 9.46856 17.9411 9.28906 18.0872C9.56596 18.0107 9.83909 17.9225 10.1066 17.8244L9.99732 17.8029Z" fill="#F4F4F4"/>
<path d="M6.33463 18.5069L1.58594 18.4854L6.33463 18.5069Z" fill="#F4F4F4"/>
<path d="M8.76894 10.4174C8.73706 12.1651 9.10712 13.8954 9.84828 15.4639C9.09481 17.052 9.28318 17.5441 9.88407 17.7696C10.0675 17.7144 10.2583 17.6899 10.4492 17.6971C11.0226 17.4684 11.5775 17.1924 12.1087 16.8716C12.0213 16.3794 11.8605 15.9044 11.6321 15.4639C12.3859 13.9033 12.7702 12.1777 12.7529 10.4311C13.252 9.03319 13.3688 7.67057 12.8772 6.66871C12.7605 6.46983 12.6295 6.28042 12.4854 6.1021C12.0464 5.64231 11.4834 5.33252 10.8711 5.21395C10.8898 5.23884 10.9068 5.26505 10.922 5.29237C10.9068 5.26505 10.8898 5.23884 10.8711 5.21395L10.775 5.19238L10.6771 5.21395C10.6582 5.23868 10.6412 5.2649 10.6262 5.29237C10.6412 5.2649 10.6582 5.23868 10.6771 5.21395C10.0642 5.32583 9.49889 5.63029 9.05714 6.08641C8.91345 6.26533 8.7831 6.45541 8.66722 6.65499C8.16994 7.65097 8.27919 9.01554 8.76894 10.4174Z" fill="#F4F4F4"/>
<path d="M10.1031 17.8171L10.444 17.6858C10.2531 17.6786 10.0624 17.7031 9.87891 17.7583L9.98439 17.7956L10.1031 17.8171Z" fill="#F4F4F4"/>
<path d="M20.385 35.164C20.2115 34.9226 20.0541 34.6691 19.9141 34.4053C20.0376 34.679 20.196 34.9342 20.385 35.164Z" fill="#F4F4F4"/>
<path d="M22.4688 36.3644L22.5535 36.384L22.5874 36.3389L22.4688 36.3644Z" fill="#F4F4F4"/>
<path d="M23.9539 21.793C23.8635 22.0537 23.7486 22.3459 23.6055 22.6733C24.4437 24.6064 25.0163 27.067 24.9334 29.3962C25.5249 31.2136 25.6775 33.0703 25.0465 34.429C25.8564 32.9527 26.4705 30.8019 27.3069 28.5609C26.7983 25.5161 25.5551 23.1223 23.9539 21.793Z" fill="#F4F4F4"/>
<path d="M22.5925 36.3384L22.5586 36.3835C23.3893 36.3521 24.0297 35.909 24.5703 35.1836C24.0452 35.7769 23.3527 36.1812 22.5925 36.3384Z" fill="#F4F4F4"/>
<path d="M25.0488 34.4287C24.906 34.6914 24.7461 34.9436 24.5703 35.1835C24.7609 34.9549 24.9218 34.7011 25.0488 34.4287Z" fill="#F4F4F4"/>
<path d="M22.3894 36.384L22.4741 36.3644L22.3555 36.3369L22.3894 36.384Z" fill="#F4F4F4"/>
<path d="M20.3828 35.1641C20.9197 35.8934 21.5563 36.3404 22.387 36.3836L22.3531 36.3365C21.5935 36.1731 20.9035 35.7625 20.3828 35.1641Z" fill="#F4F4F4"/>
<path d="M20.0579 29.3839C19.992 27.0528 20.5816 24.5981 21.4311 22.6728C20.7925 22.1558 20.3303 21.439 20.1126 20.6279C19.266 20.7126 18.448 20.9918 17.7177 21.4454C16.9874 21.8991 16.3629 22.5159 15.8894 23.2512L15.7425 23.5022C15.6731 23.6293 15.6102 23.7602 15.5541 23.8943L15.5391 23.8708C17.7712 27.4292 18.5529 31.8935 19.9129 34.4188C19.2894 33.0385 19.4533 31.1838 20.0579 29.3839Z" fill="#F4F4F4"/>
<path d="M15.8852 23.2422C15.8325 23.3265 15.7835 23.4088 15.7383 23.4931L15.8852 23.2422Z" fill="#F4F4F4"/>
<path d="M14.3945 22.2852C14.8133 22.7776 15.1961 23.3019 15.5398 23.8536C15.2152 23.2881 14.8311 22.7621 14.3945 22.2852Z" fill="#F4F4F4"/>
<path d="M24.9358 29.3957C25.0187 27.0665 24.4461 24.606 23.6079 22.6728C23.751 22.3454 23.8659 22.0533 23.9563 21.7925C23.5094 21.4151 23.006 21.1164 22.4664 20.9083C21.7076 20.6476 20.9062 20.5489 20.1099 20.6181C20.3277 21.4292 20.7899 22.146 21.4285 22.663C20.5789 24.5883 19.9894 27.043 20.0553 29.3741C19.4525 31.1838 19.2868 33.0385 19.9103 34.405C20.0503 34.6689 20.2077 34.9224 20.3812 35.1638C20.9013 35.7637 21.5914 36.1757 22.3515 36.3401C22.3307 36.3068 22.3081 36.2715 22.2893 36.2343C22.3081 36.2715 22.3307 36.3068 22.3515 36.3401L22.4701 36.3676L22.5888 36.3421C22.6114 36.3088 22.6321 36.2735 22.6529 36.2362C22.6321 36.2735 22.6114 36.3088 22.5888 36.3421C23.349 36.185 24.0415 35.7806 24.5666 35.1873C24.7425 34.9473 24.9023 34.6951 25.0451 34.4325C25.6799 33.0699 25.5273 31.2132 24.9358 29.3957Z" fill="#F4F4F4"/>
<path d="M25.1037 7.79652C25.1696 10.1257 24.58 12.5804 23.7305 14.5057C23.8115 14.7017 23.883 14.8743 23.9471 15.0409C25.454 13.4352 26.6087 10.8041 27.0514 7.48282C27.251 8.071 27.4695 8.70427 27.7182 9.34539C26.7763 6.85347 26.1321 4.40077 25.2487 2.76367C25.8665 4.13021 25.7008 5.98493 25.1037 7.79652Z" fill="#F4F4F4"/>
<path d="M22.7684 0.785156L22.6836 0.804762L22.8004 0.83221L22.7684 0.785156Z" fill="#F4F4F4"/>
<path d="M24.7719 2.00661C24.2369 1.2753 23.5983 0.83025 22.7695 0.785156L22.8016 0.83221C23.562 0.994434 24.2526 1.40602 24.7719 2.00661Z" fill="#F4F4F4"/>
<path d="M20.1094 2.74018C20.2509 2.47764 20.4095 2.22544 20.5841 1.98535C20.3941 2.21375 20.2345 2.46762 20.1094 2.74018Z" fill="#F4F4F4"/>
<path d="M20.959 16.7487C20.9063 16.2879 21.0777 15.5939 21.558 14.496C20.6415 12.3853 20.1872 10.0889 20.2282 7.77308C19.6386 5.95561 19.4841 4.09893 20.117 2.74023C18.7363 5.25568 17.9282 9.71995 15.6641 13.2608C15.8512 13.615 16.0533 13.9633 16.2706 14.3058C17.7361 16.2311 19.3862 16.9702 20.959 16.7487Z" fill="#F4F4F4"/>
<path d="M24.7695 2.00684C24.9447 2.2467 25.1028 2.49964 25.2423 2.76363C25.1188 2.49001 24.9597 2.23536 24.7695 2.00684Z" fill="#F4F4F4"/>
<path d="M22.6812 0.804762L22.5945 0.785156C22.5832 0.79888 22.5738 0.814565 22.5625 0.83025L22.6812 0.804762Z" fill="#F4F4F4"/>
<path d="M22.5638 0.83025C22.5751 0.814565 22.5845 0.79888 22.5958 0.785156C21.767 0.816526 21.1265 1.25962 20.5859 1.98504C21.1107 1.39132 21.8034 0.986872 22.5638 0.83025Z" fill="#F4F4F4"/>
<path d="M12.6289 16.5349C13.923 15.6566 14.9665 14.5469 15.6032 13.3431C15.8068 13.6757 16.0268 13.997 16.2625 14.3057C16.044 13.9646 15.8418 13.6163 15.6559 13.2607C14.8589 14.5448 13.8311 15.6566 12.6289 16.5349Z" fill="#F4F4F4"/>
<path d="M6.45312 18.5052C7.32329 18.4916 8.18911 18.3745 9.03373 18.1562C8.18611 18.3575 7.32202 18.4744 6.45312 18.5052Z" fill="#F4F4F4"/>
<path d="M20.2192 7.77265C20.1783 10.0885 20.6326 12.3849 21.5491 14.4955C21.0687 15.5935 20.8973 16.2875 20.9501 16.7483C22.0143 16.5992 23.039 16.0052 23.9413 15.0406C23.8773 14.8739 23.8057 14.6955 23.7247 14.5053C24.5742 12.58 25.1638 10.1254 25.0979 7.79618C25.7007 5.98459 25.8664 4.12986 25.2429 2.76333C25.1034 2.49934 24.9453 2.2464 24.7701 2.00654C24.2511 1.40523 23.5605 0.992939 22.7998 0.830183C22.8233 0.863997 22.8447 0.899362 22.8639 0.936055C22.8447 0.899362 22.8233 0.863997 22.7998 0.830183L22.683 0.802734L22.5644 0.828222C22.5418 0.861552 22.521 0.896843 22.5003 0.934094C22.521 0.896843 22.5418 0.861552 22.5644 0.828222C21.8024 0.984599 21.1083 1.38981 20.5828 1.98497C20.4069 2.22495 20.2471 2.47714 20.1043 2.7398C19.4752 4.09261 19.6296 5.95518 20.2192 7.77265Z" fill="#F4F4F4"/>
<path d="M24.3978 18.6009L24.2227 18.5049L24.3074 18.6009H24.3978Z" fill="#F4F4F4"/>
<path d="M30.6235 22.3887C29.0808 24.1865 28.0919 26.4138 27.3008 28.5606C28.2859 26.2903 29.1712 24.1218 30.6235 22.3887Z" fill="#F4F4F4"/>
<path d="M36.6454 18.3801C31.5595 17.2528 29.1503 13.059 27.7188 9.35156C29.2012 13.2649 31.4635 17.2763 36.6454 18.3801Z" fill="#F4F4F4"/>
<path d="M12.013 20.1934C12.013 20.2306 12.013 20.2718 11.9961 20.313C12.8812 20.8478 13.6881 21.512 14.3921 22.2853C13.7042 21.468 12.9022 20.7628 12.013 20.1934Z" fill="#F4F4F4"/>
<path d="M6.33203 18.5068C7.13575 18.5806 7.93255 18.7209 8.71486 18.9264C8.72427 18.897 8.73558 18.8656 8.74688 18.8362C7.95275 18.653 7.1447 18.5428 6.33203 18.5068Z" fill="#F4F4F4"/>
<path d="M8.74687 18.8359C8.73556 18.8653 8.72426 18.8967 8.71484 18.9261C9.8667 19.2262 10.9725 19.6928 11.9999 20.3123C11.9999 20.2711 12.0131 20.2299 12.0169 20.1927C11.0071 19.554 9.90187 19.0954 8.74687 18.8359Z" fill="#F4F4F4"/>
<path d="M12.627 16.5342C12.4555 16.6518 12.2785 16.7636 12.0977 16.8714C12.0977 16.8714 12.0977 16.8714 12.0977 16.8851C12.2804 16.7734 12.4555 16.6557 12.627 16.5342Z" fill="#F4F4F4"/>
<path d="M9.28191 18.0869L9.03516 18.1555L9.27438 18.0948L9.28191 18.0869Z" fill="#F4F4F4"/>
<path d="M10.1348 17.8311H10.1066C9.83909 17.9291 9.56596 18.0173 9.28906 18.0938C9.57726 18.0134 9.85981 17.9291 10.1348 17.8311Z" fill="#F4F4F4"/>
<path d="M12.107 16.8858C12.107 16.8858 12.107 16.8858 12.107 16.8721C11.5775 17.1912 11.0245 17.4659 10.4531 17.6936H10.5021C11.0588 17.4738 11.5958 17.2035 12.107 16.8858Z" fill="#F4F4F4"/>
<path d="M10.1337 17.8306C10.2593 17.7875 10.3799 17.7424 10.4954 17.6953H10.4464L10.1055 17.8267L10.1337 17.8306Z" fill="#F4F4F4"/>
<path d="M23.8856 18.6013C23.0726 18.6247 22.264 18.7351 21.4727 18.9306C23.3695 19.7012 24.8274 19.2973 23.9553 21.8029C25.5564 23.1322 26.8072 25.528 27.2988 28.5728C28.0899 26.4162 29.0789 24.1988 30.6216 22.4009C31.0409 21.8953 31.5085 21.4354 32.0174 21.0285C33.3634 19.9464 34.9421 19.2211 36.6172 18.915L36.6285 18.9032L36.6417 18.8797C36.6548 18.8595 36.6667 18.8385 36.6775 18.8169L36.6945 18.666L24.3 18.6071L24.2153 18.5111C23.7036 18.2556 23.1684 18.0546 22.6179 17.9111C22.2567 18.0055 21.9008 18.1207 21.5518 18.2562C22.3409 18.4561 23.1475 18.5717 23.9591 18.6013H23.8856Z" fill="#F4F4F4"/>
<path d="M21.4717 18.9202C22.2634 18.728 23.072 18.6209 23.8847 18.6006L20.8482 18.585H20.7578C20.9892 18.7112 21.2276 18.8232 21.4717 18.9202Z" fill="#F4F4F4"/>
<path d="M23.9576 18.6009C23.1484 18.5696 22.3443 18.4526 21.5578 18.252C21.3144 18.3468 21.0771 18.4582 20.8477 18.5853L23.9576 18.6009Z" fill="#F4F4F4"/>
<path d="M15.5543 23.8784C15.6104 23.7444 15.6733 23.6135 15.7426 23.4863C15.6748 23.6059 15.6089 23.7275 15.543 23.849L15.5543 23.8784Z" fill="#F4F4F4"/>
<path d="M20.0758 19.3857C18.1244 20.2308 16.8303 21.6502 15.8828 23.2363C16.3563 22.501 16.9808 21.8842 17.7111 21.4306C18.4414 20.9769 19.2594 20.6977 20.106 20.6131C20.008 20.2114 19.9978 19.7921 20.0758 19.3857Z" fill="#F4F4F4"/>
<path d="M20.0763 19.3851C20.1321 19.0964 20.2353 18.8198 20.3814 18.5676H19.837L12.9636 18.5342C12.7977 18.5539 12.6303 18.5539 12.4644 18.5342H12.1046L8.99471 18.5205H8.95703C9.71991 18.6205 10.4395 19.0734 11.3926 19.2498C11.824 19.3812 12.082 19.6126 12.0123 20.189C12.9015 20.7584 13.7035 21.4636 14.3914 22.2809C14.828 22.7578 15.2121 23.2839 15.5366 23.8494C15.6026 23.7278 15.6685 23.6063 15.7363 23.4867C15.7815 23.4024 15.8305 23.32 15.8832 23.2357C16.8307 21.6555 18.1323 20.236 20.0763 19.3851Z" fill="#F4F4F4"/>
<path d="M8.90336 18.5284C8.76893 18.5371 8.63401 18.5332 8.50026 18.5166H6.33594C7.14734 18.5528 7.95412 18.663 8.74702 18.846C8.78954 18.7353 8.84188 18.629 8.90336 18.5284Z" fill="#F4F4F4"/>
<path d="M8.74219 18.8361C9.89719 19.0957 11.0024 19.5542 12.0122 20.1929C12.0819 19.6165 11.8238 19.3851 11.3925 19.2538C10.4394 19.0773 9.7198 18.6244 8.95692 18.5244H8.89853C8.83736 18.6231 8.78503 18.7275 8.74219 18.8361Z" fill="#F4F4F4"/>
<path d="M12.964 18.5381L19.8375 18.5714L12.4648 18.5361C12.6306 18.5564 12.7981 18.5571 12.964 18.5381Z" fill="#F4F4F4"/>
<path d="M8.90511 18.5284L6.42245 18.5166H6.33203H8.49635C8.63197 18.5335 8.7688 18.5375 8.90511 18.5284Z" fill="#F4F4F4"/>
<path d="M20.1082 20.6188C20.9051 20.5493 21.7072 20.648 22.4666 20.9089C23.0063 21.1171 23.5096 21.4158 23.9565 21.7932C24.8287 19.2875 23.3707 19.6914 21.4739 18.9209C20.9982 19.0396 20.5321 19.197 20.08 19.3914C20.0013 19.7976 20.0109 20.217 20.1082 20.6188Z" fill="#F4F4F4"/>
<path d="M20.3833 18.5732C20.2372 18.8255 20.134 19.1021 20.0781 19.3908C20.5302 19.1963 20.9963 19.039 21.472 18.9203C21.2277 18.82 20.9893 18.7048 20.7581 18.5752L20.3833 18.5732Z" fill="#F4F4F4"/>
<path d="M23.2383 17.7265C23.6074 17.9215 23.9408 18.1823 24.2234 18.497L24.3986 18.5931L36.7027 18.6519C36.7027 18.6284 36.7027 18.6029 36.7027 18.5794C36.7027 18.5559 36.7027 18.5166 36.7027 18.4853C36.7035 18.4689 36.7035 18.4526 36.7027 18.4363L36.6574 18.3814C31.4755 17.2775 29.2132 13.2662 27.7233 9.34694C27.4746 8.70583 27.2561 8.07844 27.0565 7.48438C26.6119 10.8037 25.444 13.4348 23.9428 15.0405C24.7 17.0325 24.2385 17.4246 23.2383 17.7265Z" fill="#F4F4F4"/>
<path d="M24.2223 18.4971C23.9397 18.1823 23.6063 17.9215 23.2372 17.7266C23.0488 17.7834 22.8454 17.8383 22.625 17.8971C23.1755 18.0406 23.7107 18.2416 24.2223 18.4971Z" fill="#F4F4F4"/>
<path d="M12.4639 18.5365C12.3126 18.518 12.1627 18.4878 12.0156 18.4463L12.1042 18.5345L12.4639 18.5365Z" fill="#F4F4F4"/>
<path d="M20.8277 18.0132C21.0499 17.8064 21.3119 17.6514 21.5962 17.5583C21.2346 17.3917 20.9972 17.1662 20.9501 16.7408C19.3867 16.9623 17.7366 16.2232 16.2617 14.2979C17.2845 15.8938 18.6992 17.276 20.8277 18.0132Z" fill="#F4F4F4"/>
<path d="M8.99609 18.5205L12.106 18.5343L12.0175 18.446C11.6068 18.3323 11.1924 18.15 10.7328 17.9971C10.1037 18.2088 9.56307 18.4578 8.99609 18.5205Z" fill="#F4F4F4"/>
<path d="M11.47 17.8169C11.3746 17.8352 11.2804 17.8548 11.1875 17.8757C11.4945 18.0158 11.7752 18.2117 12.0163 18.4541C12.1634 18.4957 12.3132 18.5258 12.4646 18.5443L19.8372 18.5796H20.3816C20.5009 18.368 20.6509 18.1769 20.8262 18.013C18.6939 17.268 17.283 15.8857 16.2602 14.2878C16.0245 13.9791 15.8045 13.6578 15.6009 13.3252C14.9642 14.529 13.9207 15.6387 12.6266 16.517C12.4552 16.6386 12.28 16.7562 12.0992 16.868C12.1595 17.4562 11.9014 17.6816 11.47 17.8169Z" fill="#F4F4F4"/>
<path d="M12.019 18.4465C11.7779 18.2041 11.4973 18.0083 11.1902 17.8682C11.032 17.9054 10.8813 17.9505 10.7344 17.9976C11.194 18.1505 11.6084 18.3328 12.019 18.4465Z" fill="#F4F4F4"/>
<path d="M8.42218 18.5163C8.58242 18.4976 8.74415 18.4976 8.90439 18.5163C9.00854 18.356 9.13558 18.2132 9.28112 18.0928L9.0419 18.1536C8.1949 18.3731 7.32652 18.4908 6.45376 18.5045H6.41797L8.42218 18.5163Z" fill="#F4F4F4"/>
<path d="M8.99653 18.5212C9.56162 18.4584 10.1041 18.1996 10.7333 17.9977C10.5359 17.9313 10.3353 17.8756 10.1324 17.8311C9.85736 17.9291 9.56727 18.0271 9.27907 18.0957C9.13353 18.2161 9.00649 18.3589 8.90234 18.5192H8.99276L8.99653 18.5212Z" fill="#F4F4F4"/>
<path d="M8.90453 18.5189C8.74429 18.5002 8.58256 18.5002 8.42232 18.5189H6.42188L8.90453 18.5306V18.5189Z" fill="#F4F4F4"/>
<path d="M11.4737 17.817C11.9051 17.6896 12.1631 17.4641 12.1029 16.8936C11.5911 17.212 11.0535 17.483 10.4961 17.7033C10.7356 17.7188 10.9707 17.7771 11.1912 17.8758C11.2841 17.8497 11.3783 17.8301 11.4737 17.817Z" fill="#F4F4F4"/>
<path d="M11.1895 17.8678C10.9691 17.7692 10.734 17.7108 10.4945 17.6953C10.3764 17.7424 10.2559 17.7875 10.1328 17.8306C10.3358 17.8752 10.5363 17.9308 10.7337 17.9972C10.8806 17.9502 11.0313 17.9051 11.1895 17.8678Z" fill="#F4F4F4"/>
<path d="M20.8281 18.0125C21.0617 18.0929 21.3066 18.1674 21.559 18.234C21.908 18.0986 22.2639 17.9834 22.6251 17.889C22.2752 17.804 21.9315 17.6932 21.5967 17.5576C21.3123 17.6507 21.0503 17.8057 20.8281 18.0125Z" fill="#F4F4F4"/>
<path d="M20.3828 18.5734H20.8481C21.0776 18.4463 21.3148 18.335 21.5582 18.2401C21.3058 18.1734 21.0609 18.0989 20.8274 18.0186C20.653 18.1789 20.5031 18.366 20.3828 18.5734Z" fill="#F4F4F4"/>
<path d="M21.5953 17.5663C22.1416 17.3968 22.7297 17.4544 23.236 17.727C24.2362 17.4231 24.6977 17.0232 23.9405 15.041C23.0382 16.0056 22.0135 16.6095 20.9492 16.7487C20.9963 17.1702 21.2336 17.3996 21.5953 17.5663Z" fill="#F4F4F4"/>
<path d="M21.5977 17.5662C21.9325 17.7018 22.2762 17.8125 22.6261 17.8975C22.8465 17.8387 23.0518 17.7838 23.2383 17.727C22.732 17.4544 22.1439 17.3967 21.5977 17.5662Z" fill="#F4F4F4"/>
<path d="M0.928961 19.0538C1.3814 19.0075 1.72361 18.7097 1.6933 18.3886C1.663 18.0674 1.27165 17.8446 0.819214 17.8909C0.366774 17.9371 0.0245677 18.2349 0.0548736 18.5561C0.0851795 18.8772 0.476521 19.1 0.928961 19.0538Z" fill="#F4F4F4"/>
</svg>
