<svg width="21" height="22" viewBox="0 0 21 22" fill="none" xmlns="http://www.w3.org/2000/svg">
<g opacity="0.2">
<rect opacity="0.01" x="0.484375" y="0.654297" width="20.3813" height="20.3813" fill="black"/>
<rect opacity="0.01" x="0.484375" y="0.654297" width="20.3813" height="20.3813" fill="black"/>
<path fill-rule="evenodd" clip-rule="evenodd" d="M2.18359 10.8447C2.18359 6.15463 5.98569 2.35254 10.6758 2.35254C12.9281 2.35254 15.0881 3.24725 16.6807 4.83985C18.2733 6.43245 19.168 8.59247 19.168 10.8447C19.168 15.5349 15.3659 19.337 10.6758 19.337C5.98569 19.337 2.18359 15.5349 2.18359 10.8447ZM12.196 4.22933C11.6974 4.11415 11.1876 4.05434 10.6759 4.051C6.92377 4.051 3.8821 7.09267 3.8821 10.8448C3.88338 11.2548 3.92032 11.664 3.9925 12.0676C5.09648 12.5262 6.87136 13.0358 8.03479 12.1271C8.84155 11.5241 8.84155 10.8448 8.84155 9.68982C8.76818 8.72567 8.94977 7.75918 9.36807 6.88739C9.7499 6.27795 10.2939 5.78687 10.9391 5.46919C10.9781 5.44486 11.017 5.42083 11.0558 5.39687L11.0558 5.39687C11.2202 5.29545 11.3825 5.19533 11.5336 5.07855C11.8208 4.85424 12.0484 4.56256 12.196 4.22933ZM4.73127 14.0718C5.28618 14.216 5.85642 14.293 6.42972 14.3011C7.38899 14.3275 8.32892 14.0281 9.09627 13.4519C10.5484 12.3139 10.5484 10.8532 10.5484 9.68132C10.484 9.00304 10.5921 8.31947 10.8626 7.69415C11.1084 7.35948 11.4359 7.09342 11.8138 6.92136C12.0838 6.76357 12.3446 6.59062 12.5951 6.40333C13.1228 5.98647 13.5326 5.43908 13.784 4.81529C14.9788 5.42661 15.9658 6.37812 16.6204 7.54978C15.406 7.71962 13.6821 8.11876 13.3424 9.69831C13.2657 10.0757 13.2259 10.4597 13.2235 10.8448C13.251 11.2752 13.1661 11.7054 12.9772 12.0931L12.8923 12.2375C12.3403 13.1546 11.7204 14.1992 12.5611 15.6344C12.663 15.8127 12.7734 15.9825 12.8838 16.1524C13.1098 16.4135 13.2622 16.73 13.3254 17.0695C12.4902 17.4377 11.5885 17.6313 10.6758 17.6385C8.19116 17.6261 5.91147 16.2583 4.73127 14.0718ZM14.3275 15.2437C14.5364 15.5485 14.7156 15.8727 14.8625 16.2118L14.837 16.2543C16.9833 14.6095 17.9394 11.8415 17.2658 9.22273C16.4505 9.28217 15.1342 9.45202 14.9984 10.0719C14.9467 10.352 14.9211 10.6363 14.9219 10.9212C14.9544 11.6375 14.7962 12.3496 14.4634 12.9848L14.3784 13.1291C13.8434 13.9784 13.7245 14.2501 14.0557 14.8276C14.1407 14.9719 14.2341 15.1078 14.3275 15.2437L14.3275 15.2437Z" fill="black"/>
</g>
</svg>
