<svg width="21" height="22" viewBox="0 0 21 22" fill="none" xmlns="http://www.w3.org/2000/svg">
<g opacity="0.2">
<rect opacity="0.01" x="0.574219" y="0.654297" width="20.3813" height="20.3813" fill="black"/>
<path fill-rule="evenodd" clip-rule="evenodd" d="M10.1638 18.2418C10.3241 18.4008 10.5411 18.4894 10.7668 18.4881C10.9925 18.4894 11.2095 18.4008 11.3697 18.2418L17.9682 11.6349C19.6908 9.8943 19.6908 7.09127 17.9682 5.35067C16.2314 3.61879 13.4207 3.61879 11.6839 5.35067L10.7668 6.26782L9.84962 5.35067C8.11285 3.61879 5.30217 3.61879 3.56539 5.35067C1.84279 7.09127 1.84279 9.8943 3.56539 11.6349L10.1638 18.2418ZM4.77127 6.54808C5.28411 6.03399 5.98136 5.74652 6.7075 5.74981C7.43364 5.74652 8.13089 6.03399 8.64372 6.54808L10.1638 8.07667C10.3233 8.23744 10.5403 8.32787 10.7668 8.32787C10.9932 8.32787 11.2103 8.23744 11.3697 8.07667L12.8898 6.54808C13.9765 5.52142 15.6756 5.52142 16.7623 6.54808C17.83 7.62141 17.83 9.35568 16.7623 10.429L10.7668 16.433L4.77127 10.429C3.70356 9.35568 3.70356 7.62141 4.77127 6.54808Z" fill="black"/>
</g>
</svg>
