<svg width="19" height="19" viewBox="0 0 19 19" fill="none" xmlns="http://www.w3.org/2000/svg">
<path fill-rule="evenodd" clip-rule="evenodd" d="M15.1001 13.0869L18.6879 16.526C18.8876 16.7165 19 16.9758 19 17.2463C19 17.5168 18.8876 17.7761 18.6879 17.9666C18.4897 18.1586 18.22 18.2667 17.9387 18.2667C17.6573 18.2667 17.3876 18.1586 17.1895 17.9666L13.6123 14.5173C12.1376 15.6302 10.3165 16.2341 8.44172 16.2318C3.77949 16.2318 0 12.5982 0 8.1159C0 3.63361 3.77949 0 8.44172 0C13.104 0 16.8834 3.63361 16.8834 8.1159C16.8858 9.9183 16.2577 11.6691 15.1001 13.0869ZM8.44164 2.02928C4.94497 2.02928 2.11035 4.75449 2.11035 8.11621C2.11035 11.4779 4.94497 14.2031 8.44164 14.2031C11.9383 14.2031 14.7729 11.4779 14.7729 8.11621C14.7729 4.75449 11.9383 2.02928 8.44164 2.02928Z" fill="#F4F4F4"/>
</svg>
