<svg width="37" height="37" viewBox="0 0 125 125" fill="none" xmlns="http://www.w3.org/2000/svg">
<path d="M78.125 52.084C78.125 69.3429 64.1339 83.334 46.875 83.334C40.7255 83.334 34.9908 81.5577 30.1561 78.4903L15.625 83.334L20.4687 68.8029C17.4013 63.9682 15.625 58.2335 15.625 52.084C15.625 34.8251 29.6161 20.834 46.875 20.834C64.1339 20.834 78.125 34.8251 78.125 52.084Z" stroke="white" stroke-width="4" stroke-linecap="round" stroke-linejoin="round"/>
<path d="M48.6367 83.2785C52.9114 95.4442 64.501 104.166 78.1276 104.166C84.2771 104.166 90.012 102.39 94.8464 99.3223L109.378 104.166L104.534 89.6348L105.274 88.4077C107.885 83.8417 109.378 78.553 109.378 72.916C109.378 55.6572 95.3865 41.666 78.1276 41.666L76.9561 41.6876L76.368 41.7188" stroke="white" stroke-width="4" stroke-linecap="round" stroke-linejoin="round"/>
</svg>
