<svg width="98" height="98" viewBox="0 0 98 98" fill="none" xmlns="http://www.w3.org/2000/svg">
<path d="M41.589 27.3485L30.0566 27.4185C28.4643 27.4282 27.1814 28.7268 27.191 30.3191L27.261 41.8515C27.2707 43.4438 28.5693 44.7267 30.1616 44.7171L41.694 44.6471C43.2863 44.6374 44.5693 43.3388 44.5596 41.7465L44.4896 30.2141C44.4799 28.6218 43.1813 27.3388 41.589 27.3485Z" stroke="white" stroke-width="3" stroke-linecap="round" stroke-linejoin="round"/>
<path d="M41.7452 53.296L30.2129 53.366C28.6206 53.3757 27.3376 54.6743 27.3473 56.2666L27.4173 67.799C27.427 69.3913 28.7256 70.6743 30.3179 70.6646L41.8503 70.5946C43.4425 70.5849 44.7255 69.2863 44.7159 67.694L44.6458 56.1616C44.6362 54.5693 43.3375 53.2863 41.7452 53.296Z" stroke="white" stroke-width="3" stroke-linecap="round" stroke-linejoin="round"/>
<path d="M67.5343 27.1915L56.0019 27.2615C54.4096 27.2712 53.1267 28.5698 53.1363 30.1621L53.2063 41.6945C53.216 43.2868 54.5147 44.5698 56.1069 44.5601L67.6393 44.4901C69.2316 44.4804 70.5146 43.1818 70.5049 41.5895L70.4349 30.0571C70.4252 28.4648 69.1266 27.1819 67.5343 27.1915Z" stroke="white" stroke-width="3" stroke-linecap="round" stroke-linejoin="round"/>
<path d="M67.6945 53.139L56.1621 53.209C54.5698 53.2187 53.2868 54.5174 53.2965 56.1096L53.3665 67.642C53.3762 69.2343 54.6748 70.5173 56.2671 70.5076L67.7995 70.4376C69.3918 70.4279 70.6747 69.1293 70.6651 67.537L70.5951 56.0046C70.5854 54.4123 69.2867 53.1294 67.6945 53.139Z" stroke="white" stroke-width="3" stroke-linecap="round" stroke-linejoin="round"/>
</svg>

