<svg width="37" height="37" viewBox="0 0 117 104" fill="none" xmlns="http://www.w3.org/2000/svg">
<path d="M97.5 17.333H19.5C16.8076 17.333 14.625 19.2731 14.625 21.6663V82.333C14.625 84.7262 16.8076 86.6663 19.5 86.6663H97.5C100.192 86.6663 102.375 84.7262 102.375 82.333V21.6663C102.375 19.2731 100.192 17.333 97.5 17.333Z" stroke="white" stroke-width="4" stroke-linecap="round" stroke-linejoin="round"/>
<path d="M14.625 73.6666L40.1212 47.2261C42.0846 45.19 45.6362 45.2119 47.5676 47.2721L64.8325 65.688C66.6677 67.6455 69.9977 67.7798 72.0247 65.978L79.0236 59.7567C81.0782 57.9305 84.4624 58.0971 86.2775 60.1138L102.375 77.9999" stroke="white" stroke-width="4" stroke-linecap="round" stroke-linejoin="round"/>
<path d="M68.25 39.0003C68.25 36.6071 70.4326 34.667 73.125 34.667C75.8174 34.667 78 36.6071 78 39.0003C78 41.3936 75.8174 43.3337 73.125 43.3337C70.4326 43.3337 68.25 41.3936 68.25 39.0003Z" stroke="white" stroke-width="4" stroke-linecap="round" stroke-linejoin="round"/>
</svg>
