<svg width="6" height="6" viewBox="0 0 6 6" fill="none" xmlns="http://www.w3.org/2000/svg">
<path fill-rule="evenodd" clip-rule="evenodd" d="M4.3125 0.400869C4.23863 0.400869 4.16549 0.416383 4.09724 0.446526C4.02899 0.476668 3.96699 0.520849 3.91475 0.576546C3.86252 0.632242 3.82109 0.698364 3.79282 0.771135C3.76455 0.843906 3.75 0.921901 3.75 1.00067C3.75 1.07943 3.76455 1.15743 3.79282 1.2302C3.82109 1.30297 3.86252 1.36909 3.91475 1.42479C3.96699 1.48049 4.02899 1.52467 4.09724 1.55481C4.16549 1.58495 4.23863 1.60047 4.3125 1.60047C4.46168 1.60047 4.60476 1.53727 4.71025 1.42479C4.81574 1.31231 4.875 1.15974 4.875 1.00067C4.875 0.841591 4.81574 0.68903 4.71025 0.576546C4.60476 0.464062 4.46168 0.400869 4.3125 0.400869ZM3.39375 0.800735C3.43678 0.574753 3.55176 0.371583 3.7192 0.225652C3.88664 0.0797197 4.09625 0 4.3125 0C4.52875 0 4.73836 0.0797197 4.9058 0.225652C5.07324 0.371583 5.18822 0.574753 5.23125 0.800735H6V1.2006H5.23125C5.18822 1.42658 5.07324 1.62975 4.9058 1.77568C4.73836 1.92162 4.52875 2.00134 4.3125 2.00134C4.09625 2.00134 3.88664 1.92162 3.7192 1.77568C3.55176 1.62975 3.43678 1.42658 3.39375 1.2006H0V0.800735H3.39375ZM1.6875 2.4002C1.53832 2.4002 1.39524 2.46339 1.28975 2.57588C1.18426 2.68836 1.125 2.84092 1.125 3C1.125 3.15908 1.18426 3.31164 1.28975 3.42412C1.39524 3.53661 1.53832 3.5998 1.6875 3.5998C1.83668 3.5998 1.97976 3.53661 2.08525 3.42412C2.19074 3.31164 2.25 3.15908 2.25 3C2.25 2.84092 2.19074 2.68836 2.08525 2.57588C1.97976 2.46339 1.83668 2.4002 1.6875 2.4002ZM0.76875 2.80007C0.811784 2.57408 0.926762 2.37092 1.0942 2.22498C1.26164 2.07905 1.47125 1.99933 1.6875 1.99933C1.90375 1.99933 2.11336 2.07905 2.2808 2.22498C2.44824 2.37092 2.56322 2.57408 2.60625 2.80007H6V3.19993H2.60625C2.56322 3.42592 2.44824 3.62908 2.2808 3.77502C2.11336 3.92095 1.90375 4.00067 1.6875 4.00067C1.47125 4.00067 1.26164 3.92095 1.0942 3.77502C0.926762 3.62908 0.811784 3.42592 0.76875 3.19993H0V2.80007H0.76875ZM4.3125 4.39953C4.16332 4.39953 4.02024 4.46273 3.91475 4.57521C3.80926 4.68769 3.75 4.84026 3.75 4.99933C3.75 5.15841 3.80926 5.31097 3.91475 5.42345C4.02024 5.53594 4.16332 5.59913 4.3125 5.59913C4.46168 5.59913 4.60476 5.53594 4.71025 5.42345C4.81574 5.31097 4.875 5.15841 4.875 4.99933C4.875 4.84026 4.81574 4.68769 4.71025 4.57521C4.60476 4.46273 4.46168 4.39953 4.3125 4.39953ZM3.39375 4.7994C3.43678 4.57342 3.55176 4.37025 3.7192 4.22432C3.88664 4.07838 4.09625 3.99866 4.3125 3.99866C4.52875 3.99866 4.73836 4.07838 4.9058 4.22432C5.07324 4.37025 5.18822 4.57342 5.23125 4.7994H6V5.19927H5.23125C5.18822 5.42525 5.07324 5.62842 4.9058 5.77435C4.73836 5.92028 4.52875 6 4.3125 6C4.09625 6 3.88664 5.92028 3.7192 5.77435C3.55176 5.62842 3.43678 5.42525 3.39375 5.19927H0V4.7994H3.39375Z" fill="black"/>
</svg>
